<svg viewBox="0 0 24 24" xmlns="http://www.w3.org/2000/svg">
  <!-- ピクセルアート風の猫 -->
  <!-- 耳 -->
  <rect x="6" y="3" width="3" height="3" fill="#FFA500"/>
  <rect x="7" y="4" width="1" height="1" fill="#FFB6C1"/>
  <rect x="15" y="3" width="3" height="3" fill="#FFA500"/>
  <rect x="16" y="4" width="1" height="1" fill="#FFB6C1"/>
  <!-- 頭 -->
  <rect x="5" y="6" width="14" height="8" fill="#FFA500"/>
  <!-- 目 -->
  <rect x="8" y="8" width="2" height="2" fill="#000"/>
  <rect x="14" y="8" width="2" height="2" fill="#000"/>
  <rect x="9" y="8" width="1" height="1" fill="#FFF"/>
  <rect x="15" y="8" width="1" height="1" fill="#FFF"/>
  <!-- 鼻 -->
  <rect x="11" y="10" width="2" height="1" fill="#FF69B4"/>
  <!-- 口 -->
  <rect x="10" y="11" width="1" height="1" fill="#333"/>
  <rect x="13" y="11" width="1" height="1" fill="#333"/>
  <rect x="11" y="12" width="2" height="1" fill="#333"/>
  <!-- ひげ -->
  <rect x="3" y="9" width="3" height="1" fill="#333"/>
  <rect x="18" y="9" width="3" height="1" fill="#333"/>
  <rect x="3" y="11" width="3" height="1" fill="#333"/>
  <rect x="18" y="11" width="3" height="1" fill="#333"/>
  <!-- 体 -->
  <rect x="7" y="14" width="10" height="5" fill="#FFA500"/>
  <!-- 足 -->
  <rect x="7" y="19" width="3" height="3" fill="#FFA500"/>
  <rect x="14" y="19" width="3" height="3" fill="#FFA500"/>
  <!-- 尻尾 -->
  <rect x="17" y="15" width="2" height="2" fill="#FFA500"/>
  <rect x="19" y="13" width="2" height="2" fill="#FFA500"/>
  <rect x="20" y="11" width="2" height="2" fill="#FFA500"/>
</svg>